<?xml version="1.0" standalone="no"?>
<!DOCTYPE svg PUBLIC "-//W3C//DTD SVG 20010904//EN"
 "http://www.w3.org/TR/2001/REC-SVG-20010904/DTD/svg10.dtd">
<svg version="1.0" xmlns="http://www.w3.org/2000/svg"
 width="700.000000pt" height="700.000000pt" viewBox="0 0 700.000000 700.000000"
 preserveAspectRatio="xMidYMid meet">
<metadata>
Created by potrace 1.14, written by Peter Selinger 2001-2017
</metadata>
<g transform="translate(0.000000,700.000000) scale(0.100000,-0.100000)"
fill="#000000" stroke="none">
<path d="M3410 6988 c-19 -5 -48 -15 -65 -23 -16 -7 -109 -46 -205 -85 -152
-62 -261 -108 -335 -140 -11 -5 -153 -63 -315 -131 -162 -67 -313 -130 -335
-140 -22 -9 -148 -63 -280 -119 -672 -286 -1039 -457 -1137 -532 -166 -127
-280 -270 -377 -470 -70 -146 -124 -309 -146 -441 -3 -18 -8 -39 -10 -47 -2
-8 -7 -40 -10 -70 -4 -30 -10 -80 -14 -110 -3 -30 -6 -334 -5 -675 1 -696 2
-712 74 -926 112 -337 373 -725 640 -952 52 -45 100 -86 106 -92 6 -5 35 -30
64 -54 29 -25 58 -50 64 -55 6 -6 56 -49 111 -95 55 -46 105 -89 110 -95 6 -6
50 -45 100 -86 93 -78 147 -124 174 -150 9 -8 75 -64 146 -124 72 -61 144
-122 160 -137 34 -30 234 -202 561 -481 120 -102 230 -196 244 -208 14 -12 47
-41 74 -64 27 -22 54 -45 60 -51 6 -5 43 -37 81 -70 39 -33 84 -72 100 -86
142 -126 269 -226 315 -248 114 -53 265 -31 365 52 28 23 61 51 74 62 23 19
84 71 156 134 17 14 62 53 100 86 39 33 72 62 75 65 3 3 32 27 65 55 33 27 65
54 71 60 6 5 37 33 69 60 33 28 75 64 94 81 20 17 47 39 60 50 13 10 28 24 35
29 14 13 362 312 395 340 33 28 290 248 315 270 6 6 40 35 76 65 36 30 67 57
70 60 3 3 36 32 75 65 38 33 75 65 81 70 7 6 31 26 54 44 23 19 48 40 54 45
16 16 165 144 226 196 29 25 61 52 70 60 23 22 140 122 170 145 50 39 167 162
231 240 195 241 330 477 409 712 72 217 73 230 73 933 1 344 -2 654 -6 690
-52 472 -228 849 -504 1077 -131 108 -198 141 -928 463 -22 10 -143 61 -270
115 -126 54 -292 124 -368 156 -76 33 -140 59 -143 59 -3 0 -29 11 -57 24 -29
13 -131 56 -227 96 -157 64 -192 79 -265 111 -111 48 -438 179 -465 186 -44
13 -134 13 -180 1z m-260 -3374 c0 -2078 -2 -2503 -13 -2492 -8 7 -35 31 -62
53 -26 22 -53 45 -59 50 -6 6 -40 35 -76 65 -36 30 -69 60 -75 66 -8 9 -152
131 -234 199 -13 11 -31 27 -40 35 -9 9 -45 40 -81 70 -36 30 -70 60 -76 65
-17 15 -62 54 -134 115 -36 30 -67 57 -70 60 -3 3 -66 57 -140 120 -74 63
-137 116 -140 119 -3 4 -34 31 -70 61 -36 30 -67 57 -70 60 -3 3 -34 30 -70
60 -36 30 -67 57 -70 60 -3 3 -34 30 -70 60 -92 78 -109 92 -166 141 -28 24
-72 62 -98 84 -167 140 -378 469 -437 680 -22 79 -23 89 -23 675 0 632 2 664
50 849 37 141 95 253 173 332 54 54 86 75 176 118 114 55 500 228 615 276 36
15 71 32 78 37 6 6 12 8 12 5 0 -5 28 6 165 68 24 10 354 149 425 178 8 4 137
58 285 121 149 63 276 115 283 115 9 1 12 -506 12 -2505z m826 2461 c60 -25
118 -50 129 -55 11 -5 115 -48 230 -96 116 -47 228 -94 250 -104 22 -10 162
-70 312 -134 711 -303 929 -407 997 -473 42 -42 126 -166 126 -187 0 -4 9 -26
19 -49 19 -41 53 -166 66 -237 16 -94 19 -197 19 -735 0 -570 -1 -581 -23
-660 -39 -141 -133 -317 -250 -470 -25 -33 -51 -66 -58 -73 -7 -8 -25 -29 -40
-48 -14 -19 -69 -71 -122 -116 -53 -45 -103 -89 -112 -97 -9 -9 -34 -30 -55
-47 -22 -18 -51 -42 -65 -55 -14 -13 -47 -42 -74 -64 -28 -22 -57 -47 -65 -55
-8 -8 -44 -40 -80 -70 -36 -30 -76 -65 -90 -77 -14 -11 -128 -110 -255 -218
-126 -108 -255 -218 -284 -243 -30 -26 -75 -65 -100 -86 -44 -38 -61 -53 -100
-86 -10 -8 -42 -36 -72 -62 -195 -169 -419 -358 -423 -358 -3 0 -6 1125 -6
2500 0 1375 4 2500 9 2500 4 0 57 -20 117 -45z"/>
</g>
</svg>
